Coordinates
version=1
nRows=7
nColumns=40
inDegrees=yes

Units are S.I. units (second, meters, Newtons, ...)
Angles are in degrees.

endheader
time	pelvis_tilt	pelvis_list	pelvis_rotation	pelvis_tx	pelvis_ty	pelvis_tz	hip_flexion_r	hip_adduction_r	hip_rotation_r	knee_angle_r	knee_angle_r_beta	ankle_angle_r	subtalar_angle_r	mtp_angle_r	hip_flexion_l	hip_adduction_l	hip_rotation_l	knee_angle_l	knee_angle_l_beta	ankle_angle_l	subtalar_angle_l	mtp_angle_l	lumbar_extension	lumbar_bending	lumbar_rotation	arm_flex_r	arm_add_r	arm_rot_r	elbow_flex_r	pro_sup_r	wrist_flex_r	wrist_dev_r	arm_flex_l	arm_add_l	arm_rot_l	elbow_flex_l	pro_sup_l	wrist_flex_l	wrist_dev_l
     48.41014286	     -4.17332347	     -4.54152638	      1.00315792	      0.94708460	      0.90718725	      0.57543506	     16.33043145	      7.80082183	     -5.57190003	     31.46202002	     31.46202002	     19.97881133	    -12.89970371	      2.09559836	     28.90498672	    -13.89680155	      4.96796143	     62.37734851	     62.37734851	     15.31197464	    -19.47783484	     20.30684258	    -10.63741100	      6.42296516	      1.18272297	     26.11478009	    -15.62446121	    -12.20176033	     48.05631606	     45.86772977	      0.00000000	      0.00000000	     -1.96584563	     -8.08115027	      0.54238780	     24.67160072	     45.89776533	      0.00000000	      0.00000000
     48.43278571	     -4.14035551	     -4.36019804	      1.53083786	      0.94496170	      0.90817533	      0.57522954	     15.89028680	      7.53095619	     -6.00055695	     31.00836893	     31.00836893	     19.96805499	    -12.79498626	      2.13085079	     30.09852525	    -13.62795593	      4.91183799	     60.25786352	     60.25786352	     15.73414377	    -19.49728074	     20.84997177	    -10.65686875	      6.14299437	      1.43622080	     28.64663018	    -15.84365920	    -11.86963299	     49.63665931	     45.80634986	      0.00000000	      0.00000000	     -3.87874780	     -8.13821252	      1.05842130	     24.24523954	     45.75807567	      0.00000000	      0.00000000
     48.45542857	     -4.16915072	     -4.10503912	      2.07449446	      0.94284184	      0.90951074	      0.57462765	     15.40409701	      7.14374544	     -6.49167335	     30.35140744	     30.35140744	     19.74094271	    -12.63412711	      1.72577584	     31.02749620	    -13.16802891	      4.83765752	     57.37515582	     57.37515582	     15.72177373	    -19.47498360	     20.66709093	    -10.59343607	      5.82606651	      1.54027149	     31.08934779	    -16.56146892	     -9.56697642	     51.51396872	     45.63941776	      0.00000000	      0.00000000	     -6.61339578	     -9.09787847	      6.28347407	     26.39403627	     44.75281932	      0.00000000	      0.00000000
     48.47807143	     -4.19997028	     -3.76980778	      2.64840008	      0.94079418	      0.91136811	      0.57362277	     14.77852972	      6.64307147	     -7.03442254	     29.47367077	     29.47367077	     19.62364630	    -12.23234134	      1.82878226	     31.59070814	    -12.48025994	      4.84092257	     53.80898592	     53.80898592	     15.48952905	    -19.40310206	     20.48290427	    -10.50970759	      5.42145354	      1.84741166	     33.49314359	    -16.78707512	     -9.72699682	     52.85994721	     45.61062529	      0.00000000	      0.00000000	     -7.98315194	     -9.02460929	      6.58916685	     26.04355589	     44.68450452	      0.00000000	      0.00000000
     48.50071429	     -4.27546081	     -3.45744918	      3.25662793	      0.93881463	      0.91333968	      0.57228939	     14.09518060	      6.12271018	     -7.74409827	     28.40819358	     28.40819358	     19.27650378	    -11.69935737	      1.26832436	     31.81150507	    -11.80681175	      4.78594902	     49.54919696	     49.54919696	     13.84601309	    -19.28357789	     16.95000494	    -10.37210587	      5.08138888	      1.92264065	     35.84062299	    -17.10194738	     -9.22498884	     54.77991076	     45.53643495	      0.00000000	      0.00000000	     -9.94120619	     -9.63578987	     10.14164625	     27.67886766	     44.18237912	      0.00000000	      0.00000000
     48.52335714	     -4.41996412	     -3.05411975	      3.83235849	      0.93693534	      0.91556494	      0.57068560	     13.38106790	      5.54564086	     -8.29624162	     27.19472322	     27.19472322	     19.06471176	    -11.17955272	      1.45547939	     31.86390512	    -10.85443954	      5.00517059	     45.12650858	     45.12650858	     13.23800036	    -19.00055340	     17.08958452	    -10.08964749	      4.57451596	      2.24760378	     38.05876879	    -17.48146748	     -9.26682944	     55.93000066	     45.50970360	      0.00000000	      0.00000000	    -10.92651575	     -9.51852536	     10.33932582	     27.58019381	     44.14398244	      0.00000000	      0.00000000
     48.54600000	     -4.46946992	     -2.66889416	      4.43055127	      0.93527474	      0.91795011	      0.56876163	     12.41353101	      4.96380362	     -9.01578896	     25.76528138	     25.76528138	     18.87883282	    -10.31246221	      1.52620506	     31.55193613	     -9.95356108	      5.19239125	     40.48992843	     40.48992843	     12.36133433	    -18.33069354	     16.56326319	     -9.92377615	      4.17724707	      2.37190923	     40.27441266	    -17.67992423	     -9.13502003	     57.30252822	     45.46813209	      0.00000000	      0.00000000	    -11.94457514	     -9.38254505	     10.59839434	     27.74881181	     44.09488473	      0.00000000	      0.00000000
